<svg xmlns="http://www.w3.org/2000/svg" width="128" height="128"><g fill="#59B6DC"><path d="M54.91 123.64l-38.075-21.98C11.28 98.455 7.86 92.527 7.86 86.115V42.152c0-6.414 3.42-12.34 8.975-15.543L54.91 4.626c5.552-3.208 12.393-3.208 17.944 0l38.072 21.98c5.555 3.206 8.974 9.13 8.974 15.544v43.963c0 6.412-3.42 12.34-8.974 15.545l-38.072 21.98c-5.55 3.21-12.392 3.21-17.944 0z" opacity=".2"/><path d="M97.697 98.605H76.354c-.07 0-.137-.03-.18-.082l-41.86-51.28H56.24L97.87 98.24c.12.145.02.365-.173.365z" opacity=".36"/><path d="M100.427 54.65c-.047 13.357-10.98 24.124-24.333 24.124H52.926V97.65c0 .123-.1.228-.22.228H34.538c-.122 0-.223-.104-.223-.227V62.12c0-.124.102-.226.223-.226h41.946c4.036-.077 7.27-3.39 7.195-7.455-.054-4.04-3.392-7.248-7.43-7.195H34.314l8.2-16.852H76.25c13.387 0 24.223 10.865 24.177 24.257z"/></g></svg>
